<?xml version="1.0" standalone="no"?>
<!DOCTYPE svg PUBLIC "-//W3C//DTD SVG 20010904//EN"
 "http://www.w3.org/TR/2001/REC-SVG-20010904/DTD/svg10.dtd">
<svg version="1.0" xmlns="http://www.w3.org/2000/svg"
 width="1920.000000pt" height="1920.000000pt" viewBox="0 0 1920.000000 1920.000000"
 preserveAspectRatio="xMidYMid meet">

<g transform="translate(0.000000,1920.000000) scale(0.100000,-0.100000)"
fill="#000000" stroke="none">
<path d="M9166 15839 c-105 -34 -129 -52 -121 -90 7 -32 16 -28 -287 -128
-104 -35 -188 -67 -188 -72 0 -5 5 -9 12 -9 31 0 590 193 621 215 12 8 33 15
48 15 14 0 40 5 56 11 25 8 30 15 25 32 -7 33 -32 57 -56 56 -12 -1 -61 -14
-110 -30z"/>
<path d="M12125 15700 c-413 -140 -1039 -351 -1049 -353 -4 -1 -17 22 -27 52
-11 30 -28 65 -40 77 -37 40 -67 37 -251 -22 -95 -31 -186 -60 -203 -65 -55
-17 -85 -54 -85 -106 0 -35 34 -129 46 -126 57 10 237 78 258 98 28 26 82 41
113 31 11 -3 52 5 93 19 40 14 79 25 86 25 7 0 19 -19 27 -42 8 -24 29 -81 46
-127 17 -47 28 -88 24 -92 -16 -14 -557 -188 -564 -181 -4 4 -14 32 -24 62
-10 30 -20 58 -24 62 -4 4 -153 -42 -331 -103 -179 -61 -635 -216 -1015 -344
-379 -128 -717 -242 -749 -254 -33 -11 -61 -19 -63 -18 -1 2 -35 97 -74 213
-40 115 -73 210 -74 211 -2 4 -194 -63 -200 -69 -3 -2 27 -98 65 -213 38 -115
67 -212 62 -216 -4 -3 -175 -63 -381 -133 -206 -69 -376 -128 -378 -130 -2 -1
12 -46 32 -99 22 -63 31 -98 24 -103 -6 -3 -61 -23 -122 -44 -343 -117 -412
-142 -423 -150 -13 -11 -266 -99 -999 -347 -286 -97 -522 -177 -524 -180 -3
-2 15 -60 38 -129 25 -71 40 -129 35 -133 -5 -4 -31 -16 -59 -26 -27 -9 -63
-24 -80 -31 -16 -8 -91 -34 -165 -59 -118 -40 -136 -43 -146 -30 -10 13 -26
10 -130 -24 -65 -22 -294 -96 -509 -166 -214 -70 -394 -129 -399 -132 -7 -5
279 -154 784 -407 402 -202 496 -246 528 -246 49 0 48 11 -25 238 -30 96 -52
179 -50 186 3 6 63 30 133 53 139 45 297 93 306 93 3 0 25 -56 49 -125 24 -69
47 -125 52 -125 5 0 216 70 470 156 689 234 1030 345 1042 340 5 -2 25 -50 44
-107 18 -57 37 -108 41 -114 4 -5 13 -27 19 -47 15 -45 44 -68 87 -68 47 0
423 133 451 160 25 24 30 61 13 104 -5 15 -5 28 0 31 10 6 1100 375 1109 375
8 0 147 -407 141 -413 -3 -3 -90 -61 -195 -129 -104 -69 -588 -389 -1074 -712
l-884 -587 -39 15 c-63 26 -136 21 -204 -14 -32 -17 -311 -200 -619 -408 -510
-343 -562 -381 -590 -426 -41 -67 -47 -160 -15 -235 55 -126 214 -185 335
-124 16 9 206 133 420 276 573 383 727 487 759 516 44 40 76 116 76 182 l0 57
1039 690 1040 690 -16 59 c-18 68 -13 231 10 303 52 164 176 308 330 387 168
85 392 81 576 -8 83 -41 195 -148 246 -235 39 -67 40 -68 43 -37 2 21 -29 128
-84 293 -49 149 -83 265 -78 269 10 9 786 271 802 271 6 0 18 -24 28 -52 50
-152 85 -198 148 -198 13 0 114 29 224 65 232 76 248 87 238 165 -3 25 -8 56
-11 70 -6 24 -2 27 72 52 130 46 904 303 1133 377 118 38 402 133 630 211 228
78 469 160 535 182 66 22 244 83 395 135 151 52 281 95 288 96 6 0 12 1 12 1
0 9 -371 1096 -374 1096 -1 0 -139 -47 -307 -106 -167 -58 -342 -118 -389
-133 -47 -16 -197 -68 -335 -116 -137 -48 -315 -109 -395 -137 -80 -27 -182
-63 -228 -78 -59 -21 -84 -26 -87 -17 -3 7 -48 140 -101 297 -118 354 -135
400 -143 399 -3 0 -123 -40 -266 -89z m-6774 -3060 c7 -22 10 -42 8 -44 -3 -2
-212 -74 -271 -93 -13 -4 -20 5 -29 38 -8 26 -10 44 -4 46 70 28 254 91 267
92 12 1 21 -12 29 -39z m1532 -1750 c-27 -11 -28 -16 -8 -24 8 -3 21 1 29 10
9 9 17 10 21 4 3 -5 1 -10 -4 -10 -8 0 -7 -7 1 -20 10 -16 10 -22 -1 -32 -10
-11 -12 -10 -11 2 4 27 0 40 -11 40 -6 0 -8 -10 -5 -22 3 -13 3 -17 0 -10 -3
6 -10 10 -15 7 -5 -4 -6 2 -2 12 5 14 0 13 -22 -7 -20 -18 -26 -20 -22 -8 3 9
1 19 -6 22 -7 3 -2 3 11 0 12 -3 22 -1 22 5 0 6 -5 11 -12 11 -6 0 -3 7 8 15
10 8 26 14 34 14 8 0 5 -4 -7 -9z m-85 -69 c-8 -12 -17 -18 -21 -15 -5 6 25
43 32 38 1 -1 -3 -12 -11 -23z m53 -32 c8 -15 6 -17 -8 -12 -10 3 -15 3 -11
-2 11 -12 -11 -35 -33 -35 -11 0 -19 -4 -19 -10 0 -5 -4 -10 -10 -10 -21 0 -9
18 30 45 37 26 39 29 23 41 -17 13 -17 14 0 8 10 -4 22 -15 28 -25z m-83 0 c1
-8 -11 -22 -28 -32 -17 -10 -28 -22 -25 -27 3 -4 -3 -6 -14 -3 -10 3 -22 0
-25 -6 -4 -6 -13 -11 -19 -11 -7 0 -4 5 6 11 15 9 16 13 5 26 -12 14 -11 15 9
5 27 -15 45 -15 19 -1 -15 9 -16 13 -5 20 8 5 19 9 24 9 6 0 4 -4 -4 -9 -9 -6
-10 -11 -2 -15 5 -4 20 3 32 15 17 17 19 23 8 31 -11 8 -11 9 1 5 8 -2 16 -10
18 -18z m132 17 c0 -2 -7 -9 -15 -16 -13 -11 -14 -10 -9 4 5 14 24 23 24 12z
m-252 -73 c-9 -2 -15 -10 -12 -18 3 -7 1 -15 -4 -19 -6 -4 -9 24 -3 42 1 1 9
1 19 1 15 -1 16 -2 0 -6z m-44 -28 c-4 -8 -11 -15 -16 -15 -6 0 -5 6 2 15 7 8
14 15 16 15 2 0 1 -7 -2 -15z m91 -4 c-3 -6 -11 -11 -17 -11 -6 0 -6 6 2 15
14 17 26 13 15 -4z m60 9 c4 -6 -1 -7 -11 -3 -11 4 -15 2 -11 -4 3 -5 -13 -20
-36 -33 -23 -13 -48 -31 -55 -39 -11 -13 -11 -12 -2 8 9 18 9 25 0 31 -9 6 -9
9 0 15 7 4 16 2 20 -6 7 -11 13 -11 34 0 14 8 23 17 21 22 -3 4 1 10 7 12 20
8 26 8 33 -3z m-136 -44 c10 -11 8 -16 -8 -21 -11 -3 -29 -1 -41 5 -14 8 -20
8 -20 0 0 -6 -5 -8 -11 -4 -18 11 12 24 32 13 10 -5 24 -9 31 -8 10 0 10 2 1
6 -15 5 -18 23 -4 23 5 0 14 -6 20 -14z m-138 -39 c-16 -21 -1 -28 23 -12 11
8 27 15 36 15 8 0 1 -9 -16 -19 -43 -26 -48 -38 -24 -51 15 -8 20 -8 20 2 0
22 68 70 86 60 13 -7 11 -12 -13 -27 -24 -16 -26 -16 -14 -2 7 9 9 17 4 17 -5
0 -22 -15 -38 -34 -18 -21 -34 -32 -43 -28 -10 3 -13 1 -8 -6 6 -9 1 -9 -18 0
-26 11 -35 28 -16 28 6 0 10 -4 10 -10 0 -5 5 -10 12 -10 9 0 9 3 1 11 -6 6
-9 19 -5 28 5 14 3 14 -12 -1 -19 -19 -41 -25 -31 -8 3 6 0 10 -7 10 -7 0 3
11 22 25 40 28 47 30 31 12z m-66 -56 c3 -5 0 -13 -6 -17 -8 -4 -9 -3 -5 4 11
19 -8 14 -30 -7 -11 -10 -31 -24 -45 -31 -15 -8 -19 -15 -11 -18 7 -2 20 2 29
10 13 10 17 10 20 1 7 -20 21 -15 28 8 6 19 8 20 26 3 15 -14 21 -14 34 -4 10
8 15 9 15 1 0 -11 -31 -21 -90 -30 -3 -1 -11 -11 -19 -22 -11 -19 -11 -21 3
-16 24 10 19 1 -11 -19 -24 -15 -26 -15 -14 -1 8 10 9 17 3 17 -6 0 -15 -8
-21 -17 -5 -10 -13 -15 -17 -11 -4 4 5 17 20 29 27 22 27 39 -2 39 -15 0 -15
-2 -2 -11 12 -9 11 -10 -5 -4 -11 4 -26 9 -34 12 -10 5 -12 0 -6 -15 4 -14 2
-22 -5 -22 -29 0 1 42 60 83 70 49 76 52 85 38z m30 -31 c3 -5 1 -10 -4 -10
-6 0 -11 5 -11 10 0 6 2 10 4 10 3 0 8 -4 11 -10z m-225 -90 c-14 -11 -29 -20
-35 -20 -5 0 4 9 20 20 38 25 48 25 15 0z m8 -45 c-24 -21 -25 -24 -10 -39 14
-13 14 -16 2 -18 -31 -3 -35 -4 -48 -11 -7 -5 -10 -12 -7 -16 7 -12 -73 -63
-86 -56 -5 4 -16 1 -24 -5 -11 -9 -15 -9 -15 -1 0 6 8 15 18 18 29 11 32 27 9
40 -29 16 -38 16 -31 -1 3 -8 -3 -19 -15 -25 -43 -23 6 40 57 73 45 31 51 32
62 16 7 -9 17 -17 24 -17 6 0 19 -4 29 -8 9 -4 17 -3 17 3 0 5 -7 13 -17 16
-14 6 -14 8 3 21 15 11 16 15 4 15 -12 0 -11 3 3 11 9 5 22 7 27 4 6 -3 10 -1
10 6 0 7 3 9 8 5 4 -4 -5 -18 -20 -31z m-68 5 c-12 -8 -12 -10 -1 -10 8 0 12
-3 8 -6 -9 -9 -28 6 -22 17 4 5 12 9 18 9 7 0 6 -4 -3 -10z m127 -12 c-2 -7
-12 -12 -22 -10 -10 2 -14 -1 -10 -7 4 -7 0 -8 -11 -4 -14 5 -13 8 7 19 30 17
42 17 36 2z m-307 -108 c-14 -11 -29 -20 -35 -20 -5 0 4 9 20 20 38 25 48 25
15 0z m0 -51 c-17 -15 -18 -18 -5 -29 18 -15 11 -30 -13 -30 -15 0 -15 2 -2
10 12 8 12 12 2 18 -7 5 -10 16 -6 26 6 16 4 17 -16 6 -17 -9 -25 -9 -34 0 -8
8 -6 9 8 4 13 -5 17 -4 12 4 -4 7 -2 10 6 7 8 -3 22 1 33 9 28 20 42 -3 15
-25z m-57 -29 c3 6 4 5 3 -2 -1 -7 -9 -13 -17 -14 -8 0 -31 -8 -51 -17 -20 -9
-44 -14 -52 -11 -11 4 -16 0 -16 -14 0 -12 5 -24 10 -27 6 -3 10 -11 10 -18 0
-6 -7 -1 -16 11 -22 32 -15 46 41 84 48 33 51 33 67 16 10 -12 18 -15 21 -8z
m99 23 c-6 -2 -10 -9 -7 -13 3 -5 0 -12 -6 -16 -8 -4 -9 -3 -5 4 4 7 1 12 -6
12 -9 0 -9 3 2 10 8 5 20 9 25 9 6 0 4 -3 -3 -6z m-76 -65 c1 -2 -13 -13 -32
-26 -19 -12 -34 -18 -34 -13 0 5 9 13 21 16 15 5 18 10 10 18 -8 8 -14 8 -23
-1 -7 -7 -17 -12 -22 -12 -6 0 -2 7 8 15 16 12 60 14 72 3z m-206 -38 c-14
-11 -29 -20 -35 -20 -5 0 4 9 20 20 38 25 48 25 15 0z m119 -1 c-15 -9 -32 -2
-24 11 3 5 13 6 21 3 12 -4 13 -8 3 -14z m-104 -46 c1 -18 7 -27 16 -25 11 3
11 1 2 -9 -9 -9 -15 -8 -28 5 -12 12 -13 16 -3 17 10 0 10 2 -1 6 -11 5 -11 7
0 14 11 7 11 9 1 9 -7 0 -10 5 -7 11 10 15 18 4 20 -28z m-45 1 c-10 -11 -10
-14 0 -14 8 0 11 -3 8 -6 -8 -8 -50 15 -44 24 2 4 14 8 26 9 18 2 19 -1 10
-13z m5 -62 c-6 -7 -45 19 -45 29 0 5 11 2 24 -8 13 -10 23 -19 21 -21z m20
18 c3 -6 -1 -7 -9 -4 -18 7 -21 14 -7 14 6 0 13 -4 16 -10z"/>
<path d="M6805 10760 c-3 -6 1 -7 9 -4 18 7 21 14 7 14 -6 0 -13 -4 -16 -10z"/>
<path d="M6445 10600 c-3 -5 -2 -10 4 -10 5 0 13 5 16 10 3 6 2 10 -4 10 -5 0
-13 -4 -16 -10z"/>
<path d="M6348 10493 c7 -3 16 -2 19 1 4 3 -2 6 -13 5 -11 0 -14 -3 -6 -6z"/>
<path d="M6086 10356 l-38 -23 31 -13 c31 -12 31 -13 14 -33 -16 -18 -13 -17
24 4 28 16 39 27 32 34 -6 6 -13 5 -19 -5 -5 -8 -12 -11 -16 -7 -10 10 2 20
28 22 12 1 24 8 26 16 3 8 1 11 -3 6 -5 -4 -16 0 -25 8 -14 13 -20 12 -54 -9z
m30 -11 c-11 -8 -27 -15 -35 -15 -10 0 -7 6 9 14 33 19 50 19 26 1z"/>
<path d="M5845 10195 c-22 -13 -37 -25 -33 -25 14 0 78 34 78 42 0 11 0 11
-45 -17z"/>
<path d="M9250 15605 c-69 -24 -131 -44 -138 -45 -7 0 -17 11 -22 24 l-9 23
-239 -80 -239 -81 23 -70 c13 -38 21 -73 17 -77 -5 -4 -125 -46 -268 -94 -143
-48 -424 -143 -625 -211 -200 -68 -367 -120 -370 -116 -4 4 -26 60 -49 125
-24 64 -49 117 -55 117 -15 0 -107 -30 -121 -40 -5 -4 -79 -31 -163 -60 l-153
-53 -15 22 c-8 11 -26 21 -39 21 -36 0 -212 -59 -226 -76 -10 -12 -8 -79 4
-90 7 -7 126 38 138 52 6 8 28 14 48 14 20 0 55 9 76 20 22 12 99 40 170 65
72 24 137 46 146 50 12 4 19 -4 27 -33 7 -22 12 -42 12 -45 0 -3 -68 -29 -150
-57 -138 -49 -150 -55 -144 -74 3 -12 7 -25 8 -31 0 -5 -63 -31 -140 -58
l-141 -48 52 -162 c63 -196 79 -235 101 -244 20 -8 212 52 237 74 12 12 16 25
12 44 -6 26 -5 27 142 76 286 95 318 103 325 83 2 -6 132 34 298 91 362 124
836 284 910 308 43 14 55 21 53 37 -2 17 31 30 239 102 l241 82 22 -20 c12
-11 28 -20 36 -20 32 0 213 67 223 83 12 19 -18 152 -52 229 -10 23 -29 76
-42 116 -12 39 -25 72 -29 71 -3 0 -62 -20 -131 -44z"/>
<path d="M7056 14066 c-264 -91 -276 -102 -240 -212 9 -27 18 -50 19 -51 1 -2
46 12 100 31 88 30 101 37 112 64 27 66 116 95 172 56 22 -16 28 -15 90 6 36
13 70 26 74 30 4 4 -1 32 -13 62 -16 44 -28 59 -54 72 -19 9 -38 16 -43 15 -4
0 -102 -33 -217 -73z"/>
<path d="M4409 13449 l-27 -10 21 -62 c11 -34 29 -71 39 -83 10 -11 18 -33 18
-48 0 -43 21 -106 36 -106 26 0 63 20 74 39 8 16 3 44 -26 133 -20 62 -43 121
-52 131 -17 19 -43 21 -83 6z"/>
<path d="M4035 13324 c-185 -63 -243 -88 -252 -111 -6 -16 47 -193 74 -246 14
-28 16 -29 72 -22 l57 6 52 -152 c29 -84 51 -153 50 -154 -2 -1 -80 -28 -175
-59 -174 -58 -223 -83 -223 -115 0 -25 36 -55 57 -48 10 3 225 76 478 162 253
86 521 177 596 203 l137 45 -15 44 c-8 24 -18 43 -23 43 -4 0 -80 -25 -169
-55 -89 -30 -165 -55 -169 -55 -10 0 -73 191 -77 233 -2 18 -8 44 -14 59 l-10
27 -72 -24 c-40 -14 -73 -24 -74 -22 -1 1 -25 67 -52 147 -40 114 -54 145 -69
146 -11 1 -91 -22 -179 -52z m411 -344 c1 -8 16 -55 32 -103 27 -79 29 -89 14
-94 -10 -3 -38 -14 -64 -24 -30 -12 -49 -15 -53 -8 -4 5 -22 55 -40 110 l-34
100 32 13 c58 24 62 25 86 23 13 -1 25 -9 27 -17z"/>
<path d="M9737 12585 c-86 -32 -157 -119 -172 -212 -5 -32 -2 -51 15 -85 38
-74 68 -105 131 -137 115 -57 238 -35 323 59 53 59 78 119 70 168 -15 92 -97
188 -182 212 -51 14 -139 11 -185 -5z"/>
<path d="M10336 11993 c-12 -36 -137 -146 -211 -185 -133 -69 -262 -90 -405
-64 -101 18 -224 75 -293 136 -26 23 -47 39 -47 36 0 -3 12 -30 27 -60 l26
-54 -51 -59 c-76 -87 -144 -208 -181 -319 -57 -172 -41 -256 57 -290 3 -1 -89
-200 -458 -984 -172 -366 -347 -739 -390 -830 -42 -91 -377 -804 -745 -1585
-619 -1318 -888 -1890 -1522 -3240 -684 -1455 -827 -1757 -837 -1760 -6 -2
-28 -6 -49 -10 -76 -12 -97 -46 -198 -309 -73 -191 -90 -246 -85 -274 14 -88
74 -121 216 -122 l95 0 123 288 c67 158 126 293 131 300 7 11 18 10 59 -8 l50
-22 -40 -96 c-130 -313 -185 -453 -177 -458 13 -8 92 16 113 34 24 21 176 335
183 378 7 42 -11 95 -42 124 -14 13 -25 29 -25 35 0 14 20 56 597 1280 231
490 741 1570 1133 2400 391 831 880 1866 1085 2300 205 435 506 1074 670 1420
516 1094 530 1124 538 1115 2 -3 6 -1903 8 -4223 l4 -4218 -33 -25 c-59 -47
-62 -60 -62 -308 l0 -224 26 -32 c45 -53 70 -60 209 -60 l125 0 0 325 0 325
60 0 60 0 0 -326 0 -326 33 6 c43 8 78 35 99 77 15 29 18 64 18 244 0 245 -5
264 -82 303 l-45 23 -6 1636 c-4 900 -7 2804 -6 4232 l0 2596 73 -150 c137
-281 528 -1090 701 -1450 34 -71 284 -589 555 -1150 271 -561 518 -1074 550
-1140 32 -66 152 -316 267 -555 116 -239 428 -885 693 -1435 265 -550 547
-1133 625 -1295 78 -162 257 -533 398 -825 141 -291 258 -542 262 -556 4 -17
0 -39 -10 -60 -29 -55 -15 -107 73 -291 68 -141 86 -170 114 -185 28 -15 62
-18 233 -20 110 -1 187 1 171 5 -28 7 -37 23 -132 242 -56 129 -118 272 -138
317 -20 45 -36 83 -36 86 0 2 21 12 48 22 26 10 48 19 50 20 1 1 -74 159 -167
351 -187 388 -172 356 -1134 2349 -379 787 -908 1882 -1175 2435 -267 553
-515 1068 -552 1145 -37 77 -197 408 -355 735 -462 956 -675 1400 -675 1405 0
3 8 5 19 5 29 0 68 36 75 71 14 70 -72 316 -154 441 -28 42 -79 103 -113 134
l-63 58 28 74 c16 40 27 79 25 85 -2 7 -7 2 -11 -10z m63 -380 c42 -40 45 -95
8 -139 -19 -21 -32 -27 -67 -27 -36 0 -48 6 -72 32 -81 91 42 216 131 134z
m-889 -617 c0 -2 -27 -59 -59 -127 -32 -68 -131 -277 -219 -464 -88 -187 -266
-565 -397 -840 -130 -275 -252 -531 -270 -570 -18 -38 -223 -470 -455 -960
-233 -489 -441 -928 -462 -975 -22 -46 -84 -177 -138 -290 -134 -281 -189
-396 -285 -600 -92 -196 -390 -824 -825 -1740 -160 -338 -327 -689 -370 -780
-43 -91 -142 -300 -221 -465 -78 -165 -161 -342 -185 -393 l-44 -93 -30 16
c-16 8 -30 19 -30 24 0 5 26 64 59 132 32 68 139 293 236 499 98 206 213 449
256 539 44 90 79 165 79 166 0 2 37 79 81 171 45 93 94 196 109 229 22 49 328
695 532 1125 28 58 136 285 240 505 289 609 352 741 469 988 60 126 109 230
109 232 0 1 35 76 79 166 71 149 761 1602 851 1794 21 44 60 127 88 185 309
654 499 1056 522 1105 16 33 60 128 100 210 39 83 78 165 87 183 13 28 20 32
54 32 22 0 39 -2 39 -4z m455 -8 c2 -7 9 -1120 15 -2473 6 -1353 15 -3202 19
-4110 5 -907 7 -1651 6 -1653 -2 -2 -18 -4 -36 -5 l-34 -2 -7 1095 c-3 602
-11 2249 -17 3660 -6 1411 -14 2775 -17 3033 l-7 467 37 0 c20 0 38 -6 41 -12z
m529 -10 c16 -25 329 -667 561 -1153 29 -60 109 -226 179 -369 69 -142 126
-259 126 -261 0 -1 57 -119 126 -261 69 -142 177 -365 239 -494 62 -129 157
-325 210 -435 54 -110 121 -249 150 -310 59 -123 89 -185 515 -1065 354 -731
434 -896 505 -1045 29 -60 96 -200 150 -310 53 -110 123 -254 155 -320 32 -66
95 -196 140 -290 45 -93 111 -228 145 -300 35 -71 102 -211 150 -310 122 -252
228 -471 290 -600 29 -60 105 -218 170 -350 64 -132 126 -260 138 -284 l20
-43 -24 -19 c-13 -10 -28 -19 -32 -19 -6 0 -277 543 -277 555 0 1 -59 124
-131 271 -72 148 -148 305 -169 349 -21 44 -78 163 -127 265 -234 481 -770
1591 -888 1835 -34 72 -100 207 -145 300 -113 234 -219 452 -305 630 -175 361
-222 459 -292 605 -42 85 -104 214 -138 285 -34 72 -106 220 -160 330 -53 110
-153 317 -222 460 -69 143 -161 334 -206 425 -44 91 -110 228 -147 305 -37 77
-105 217 -150 310 -45 94 -110 229 -145 300 -34 72 -104 216 -155 320 -51 105
-112 231 -135 280 -24 50 -79 166 -124 258 -44 93 -81 171 -81 173 0 2 16 4
35 4 25 0 39 -6 49 -22z"/>
<path d="M14610 2726 c0 -2 38 -93 84 -202 46 -110 109 -257 138 -328 30 -72
60 -132 66 -134 17 -5 45 58 43 102 -1 45 -169 486 -196 516 -23 25 -77 50
-109 50 -14 0 -26 -2 -26 -4z"/>
</g>
</svg>
